<?xml version="1.0" standalone="no"?>
<!DOCTYPE svg PUBLIC "-//W3C//DTD SVG 20010904//EN"
 "http://www.w3.org/TR/2001/REC-SVG-20010904/DTD/svg10.dtd">
<svg version="1.0" xmlns="http://www.w3.org/2000/svg"
 width="512.000000pt" height="512.000000pt" viewBox="0 0 512.000000 512.000000"
 preserveAspectRatio="xMidYMid meet">

<g transform="translate(0.000000,512.000000) scale(0.100000,-0.100000)"
fill="#000000" stroke="none">
<path d="M1520 5020 c-36 -5 -108 -19 -160 -31 -85 -19 -99 -26 -136 -63 -85
-85 -80 -196 14 -282 33 -30 35 -34 17 -40 -53 -18 -193 -78 -237 -100 -89
-45 -109 -85 -67 -138 30 -38 61 -33 180 24 57 27 156 66 219 87 63 20 123 43
133 51 10 10 17 29 17 53 0 35 -6 43 -95 118 -52 45 -95 85 -95 89 0 36 77 63
240 83 282 34 595 -44 863 -217 l67 -44 0 -130 c0 -149 12 -195 54 -206 14 -3
38 -3 52 0 42 11 54 57 54 206 l0 130 68 44 c318 206 660 270 1015 190 48 -11
70 -22 78 -37 13 -22 8 -28 -126 -142 -49 -43 -58 -56 -58 -83 0 -48 24 -65
152 -106 295 -94 609 -296 782 -502 93 -112 151 -201 147 -227 -3 -22 -7 -22
-184 -27 -208 -6 -224 -11 -224 -81 0 -36 4 -41 94 -108 175 -132 320 -312
421 -524 89 -187 135 -355 157 -575 11 -116 10 -126 -6 -138 -10 -7 -25 -10
-33 -7 -8 3 -97 57 -196 120 -100 63 -192 116 -205 120 -36 9 -76 -26 -80 -68
-2 -27 5 -45 33 -82 83 -108 171 -281 220 -431 44 -136 65 -262 72 -421 5
-141 4 -151 -15 -175 l-20 -25 -99 68 c-54 37 -109 67 -120 67 -12 0 -33 -10
-48 -22 -25 -22 -26 -30 -51 -288 -14 -146 -29 -268 -32 -272 -11 -11 -95 -26
-197 -34 -74 -6 -93 -11 -112 -30 -50 -50 -13 -124 63 -124 54 0 210 19 259
32 56 14 104 53 126 102 12 28 23 100 35 226 9 102 18 187 21 190 2 2 12 -1
21 -8 73 -52 149 -60 219 -24 88 46 108 110 100 325 -8 223 -55 432 -136 612
l-30 66 55 -32 c105 -60 184 -57 254 10 57 55 66 97 52 250 -38 408 -191 767
-438 1029 l-83 89 66 7 c74 8 106 21 145 63 62 66 65 148 9 245 -183 313 -543
591 -946 732 -18 6 -16 10 17 40 94 86 99 197 14 282 -36 36 -52 44 -131 62
-388 91 -782 21 -1123 -198 l-82 -52 -82 52 c-231 149 -481 227 -748 235 -80
2 -174 0 -210 -5z"/>
<path d="M619 4237 c-124 -107 -246 -251 -318 -378 -48 -85 -42 -170 17 -232
39 -42 71 -55 145 -63 l66 -7 -85 -91 c-246 -260 -398 -619 -436 -1027 -14
-153 -5 -195 52 -250 70 -67 149 -70 253 -10 l55 31 -38 -87 c-79 -185 -118
-362 -127 -584 -8 -221 11 -285 100 -331 60 -31 132 -29 192 6 26 15 48 26 50
24 1 -1 10 -86 19 -188 19 -206 33 -251 87 -293 68 -51 235 -72 528 -64 232 6
339 22 549 83 l22 6 0 -321 0 -322 25 -24 c31 -32 69 -32 100 0 l25 24 0 296
c0 162 2 295 4 295 2 0 46 -20 97 -44 52 -25 134 -56 182 -70 61 -18 101 -36
131 -61 23 -19 69 -47 102 -62 50 -23 72 -28 144 -28 72 0 94 5 144 28 33 15
79 43 102 62 30 25 70 43 131 61 48 14 130 45 182 70 51 24 95 44 97 44 2 0 4
-133 4 -295 l0 -296 25 -24 c31 -32 69 -32 100 0 l25 24 0 322 0 321 23 -6
c183 -53 396 -88 425 -70 28 18 46 58 38 87 -9 37 -46 52 -176 71 -58 9 -131
24 -163 32 l-57 17 65 68 c158 168 273 384 324 610 28 121 111 942 111 1091 0
129 -18 254 -55 383 -29 102 -140 336 -178 378 -43 46 -117 30 -131 -29 -5
-20 5 -47 47 -123 63 -111 100 -202 127 -306 22 -85 40 -208 40 -269 l0 -42
-132 -29 c-98 -22 -133 -26 -136 -17 -9 28 -92 130 -129 160 -156 123 -381
136 -541 32 -80 -51 -138 -119 -180 -208 -35 -74 -37 -81 -36 -187 0 -128 19
-190 85 -277 37 -49 39 -57 39 -122 0 -140 -89 -236 -220 -236 -131 0 -220 96
-220 236 0 65 2 73 39 122 66 87 85 149 85 277 1 106 -1 113 -36 187 -89 188
-253 287 -457 276 -76 -5 -102 -11 -163 -40 -87 -42 -162 -107 -203 -177 -16
-28 -37 -51 -45 -51 -8 0 -68 12 -134 27 l-119 27 6 86 c40 559 445 1015 1007
1136 118 25 362 25 480 0 215 -46 395 -133 568 -273 62 -49 97 -55 130 -20 38
40 29 78 -29 131 -117 105 -293 205 -462 261 -175 58 -252 70 -447 70 -194 0
-301 -18 -469 -77 -552 -193 -931 -727 -931 -1314 0 -161 86 -977 116 -1104
51 -217 164 -424 321 -590 l63 -67 -58 -16 c-151 -43 -241 -52 -492 -52 -229
0 -350 11 -372 33 -4 4 -19 126 -32 272 -25 258 -26 266 -51 288 -14 12 -35
22 -47 22 -11 0 -65 -30 -119 -67 -98 -66 -99 -66 -120 -47 -21 18 -21 25 -16
174 6 170 28 291 78 443 39 116 135 305 200 394 59 81 63 122 16 157 -37 27
-44 24 -270 -118 -166 -105 -188 -116 -208 -106 -21 12 -21 16 -15 104 31 428
201 798 484 1055 42 39 102 88 132 109 48 33 55 42 58 76 2 25 -2 44 -14 57
-15 17 -33 19 -180 19 -175 0 -214 7 -214 40 0 49 165 258 285 362 101 88 115
119 70 163 -40 41 -72 33 -156 -38z m1479 -1513 c80 -26 142 -80 182 -158 30
-60 34 -77 34 -140 -1 -125 -68 -232 -179 -286 -40 -19 -66 -24 -135 -24 -73
-1 -92 3 -136 26 -65 34 -138 114 -158 175 -9 26 -16 74 -16 108 0 34 7 82 16
108 28 82 123 170 214 198 43 13 126 10 178 -7z m1150 -14 c66 -28 141 -108
165 -176 38 -109 13 -233 -65 -319 -150 -164 -407 -129 -508 69 -30 59 -34 77
-34 140 0 230 228 378 442 286z m-1817 -219 l96 -22 7 -67 c14 -138 78 -265
173 -340 40 -31 158 -92 179 -92 7 0 -5 -34 -26 -75 -59 -117 -75 -196 -75
-362 0 -137 1 -142 25 -168 43 -47 76 -55 235 -55 l145 0 0 -269 0 -269 -51
19 c-354 135 -632 452 -719 822 -11 45 -37 261 -60 479 -44 432 -43 431 -32
425 4 -3 50 -14 103 -26z m2369 11 c0 -32 -82 -798 -90 -840 -58 -306 -248
-588 -513 -760 -72 -46 -193 -106 -240 -117 l-27 -7 0 266 0 266 145 0 c159 0
192 8 235 55 24 26 25 30 25 178 -1 145 -2 156 -34 247 -17 52 -43 114 -57
138 -17 28 -21 42 -12 42 24 0 142 61 184 96 94 77 158 202 170 334 l7 68 81
20 c90 22 126 26 126 14z m-1616 -529 c2 -10 8 -34 11 -53 20 -95 104 -198
203 -247 51 -25 67 -28 162 -28 95 0 111 3 162 28 102 50 188 158 204 255 9
60 13 63 64 48 53 -16 89 -55 136 -153 42 -87 64 -182 64 -285 l0 -78 -630 0
-630 0 0 78 c0 103 22 198 64 285 45 94 83 138 132 153 53 16 52 16 58 -3z
m296 -752 c0 -80 3 -93 23 -117 33 -37 81 -37 114 0 20 24 23 37 23 117 l0 89
70 0 70 0 0 -258 0 -258 -27 -55 c-38 -74 -93 -111 -172 -117 -77 -6 -125 11
-175 62 -61 61 -66 87 -66 375 l0 251 70 0 70 0 0 -89z"/>
<path d="M2183 3655 c-71 -20 -126 -49 -173 -92 -50 -44 -55 -90 -14 -122 38
-30 58 -26 125 18 88 59 142 68 286 47 65 -9 134 -16 153 -16 19 0 88 7 153
16 144 21 198 12 286 -47 67 -44 87 -48 125 -18 19 15 26 30 26 54 0 60 -115
140 -240 166 -56 12 -122 9 -267 -11 -60 -7 -105 -8 -160 0 -140 19 -244 21
-300 5z"/>
<path d="M2245 3367 c-152 -51 -217 -134 -152 -195 32 -30 65 -28 113 7 63 47
112 57 208 43 45 -7 111 -12 146 -12 35 0 101 5 146 12 96 14 145 4 208 -43
22 -16 52 -29 66 -29 36 0 70 38 70 79 0 41 -34 74 -120 115 -63 30 -69 31
-175 28 -186 -6 -276 -6 -375 1 -68 5 -106 3 -135 -6z"/>
</g>
</svg>
